<svg data-v-0dd9719b="" version="1.0" xmlns="http://www.w3.org/2000/svg" xmlns:xlink="http://www.w3.org/1999/xlink" width="100%" height="100%" viewBox="0 0 340.000000 250.000000" preserveAspectRatio="xMidYMid meet" color-interpolation-filters="sRGB" style="margin: auto;"> <rect data-v-0dd9719b="" x="0" y="0" width="100%" height="100%" fill="#fff" fill-opacity="1" class="background"></rect> <rect data-v-0dd9719b="" x="0" y="0" width="100%" height="100%" fill="url(#watermark)" fill-opacity="1" class="watermarklayer"></rect> <g data-v-0dd9719b="" fill="#25bcbd" class="icon-text-wrapper icon-svg-group iconsvg" transform="translate(46.88500213623047,94.87861061096191)"><g class="iconsvg-imagesvg" transform="translate(0,0)"><g><rect fill="#25bcbd" fill-opacity="0" stroke-width="2" x="0" y="0" width="60" height="60.24277839693966" class="image-rect"></rect> <svg x="0" y="0" width="60" height="60.24277839693966" filtersec="colorsb8261248030" class="image-svg-svg primary" style="overflow: visible;"><svg xmlns="http://www.w3.org/2000/svg" viewBox="0 8.699999809265137 618.0999755859375 620.5999755859375"><path d="M136.5 183.6H149c1.7 0 3-1.4 3-3v-12.5c0-1.7-1.4-3-3-3h-12.5c-1.7 0-3 1.4-3 3v12.5c-.1 1.7 1.3 3 3 3zM112.9 280.3v14.8c0 2 1.6 3.6 3.6 3.6h14.8c2 0 3.6-1.6 3.6-3.6v-14.8c0-2-1.6-3.6-3.6-3.6h-14.8c-2 0-3.6 1.6-3.6 3.6zM36.1 305.8v-24.3c0-3.2-2.6-5.9-5.9-5.9H5.9c-3.2 0-5.9 2.6-5.9 5.9v24.3c0 3.2 2.6 5.9 5.9 5.9h24.3c3.2 0 5.9-2.7 5.9-5.9zM42.6 260.9h58.5c7.8 0 14.2-6.4 14.2-14.2v-58.5c0-7.8-6.4-14.2-14.2-14.2H42.6c-7.8 0-14.2 6.4-14.2 14.2v58.5c0 7.8 6.4 14.2 14.2 14.2zM154.2 148.9h65.5c8.7 0 15.9-7.1 15.9-15.9V67.6c0-8.7-7.1-15.9-15.9-15.9h-65.5c-8.7 0-15.9 7.1-15.9 15.9v65.5c.1 8.7 7.2 15.8 15.9 15.8zM478.5 160h83.7c4.9 0 9.5.9 13.8 2.6-13.5-23.1-29.9-44.3-48.7-63.1C471.2 43.4 393.6 8.7 307.9 8.7V123.8c53.5 0 102 21.5 137.2 56.4 6.4-12 19-20.2 33.4-20.2zM261.7 118.2c-2.3 0-4.1 1.8-4.1 4.1v16.9c0 2.3 1.8 4.1 4.1 4.1h16.9c2.3 0 4.1-1.8 4.1-4.1v-16.9c0-2.3-1.8-4.1-4.1-4.1h-16.9zM77.5 153h26.1c3.5 0 6.3-2.8 6.3-6.3v-26.1c0-3.5-2.8-6.3-6.3-6.3H77.5c-3.5 0-6.3 2.8-6.3 6.3v26.1c0 3.4 2.9 6.3 6.3 6.3zM282.1 530.8h-13.2c-1.8 0-3.2 1.4-3.2 3.2v13.2c0 1.8 1.4 3.2 3.2 3.2h13.2c1.8 0 3.2-1.4 3.2-3.2V534c0-1.8-1.5-3.2-3.2-3.2zM599.8 281.4c0 20.7-16.9 37.7-37.7 37.7H503c0 107.8-87.4 195.1-195.2 195.1V629.3c85.7 0 163.3-34.7 219.4-90.9 56.1-56.1 90.9-133.7 90.9-219.4 0-37-6.5-72.5-18.4-105.4v67.8zM112.1 473.8H78.8c-4.4 0-8.1 3.6-8.1 8.1v33.3c0 4.4 3.6 8.1 8.1 8.1h33.3c4.4 0 8.1-3.6 8.1-8.1v-33.3c-.1-4.5-3.7-8.1-8.1-8.1zM282 460.2v-24.3c0-3.2-2.6-5.9-5.9-5.9h-24.3c-3.2 0-5.9 2.6-5.9 5.9v24.3c0 3.2 2.6 5.9 5.9 5.9h24.3c3.3 0 5.9-2.7 5.9-5.9zM230 493.4h-65.4c-8.7 0-15.9 7.1-15.9 15.9v65.4c0 8.7 7.1 15.9 15.9 15.9H230c8.7 0 15.9-7.1 15.9-15.9v-65.4c-.1-8.7-7.2-15.9-15.9-15.9zM253.2 390v-48.6c0-6.5-5.3-11.8-11.8-11.8h-48.6c-6.5 0-11.8 5.3-11.8 11.8V390c0 6.5 5.3 11.8 11.8 11.8h48.6c6.5 0 11.8-5.3 11.8-11.8z" fill="#25bcbd"></path><linearGradient id="a23ca9a45-1be7-40b5-9436-d6ce29d47b8b" gradientUnits="userSpaceOnUse" x1="20.209" y1="314.098" x2="582.468" y2="314.098"><stop offset="0" stop-color="#25bcbd"></stop><stop offset="1" stop-color="#c2d72e"></stop></linearGradient><path d="M179.9 300.5c2.1.7 4.3 1.1 6.6 1.1h83.7c2.3 0 4.6-.4 6.6-1.1l37.4 37.4c-1.3 2.7-2 5.7-2 8.8v83.7c0 11.2 9.1 20.3 20.3 20.3h83.7c11.2 0 20.3-9.1 20.3-20.3v-83.7c0-3.2-.7-6.2-2-8.8l37.4-37.4c2.1.7 4.3 1.1 6.6 1.1h83.7c11.2 0 20.3-9.1 20.3-20.3v-83.7c0-11.2-9.1-20.3-20.3-20.3h-83.7c-11.2 0-20.3 9.1-20.3 20.3v83.7c0 2.8.6 5.5 1.6 7.9l-38.1 38.1c-1.8-.5-3.6-.8-5.6-.8h-83.7c-1.9 0-3.8.3-5.6.8l-38.1-38.1c1-2.4 1.6-5.1 1.6-7.9v-83.7c0-11.2-9.1-20.3-20.3-20.3h-83.7c-11.2 0-20.3 9.1-20.3 20.3v83.7c0 2.8.6 5.5 1.6 7.9l-38.1 38.1c-1.8-.5-3.6-.8-5.6-.8H40.5c-11.2 0-20.3 9.1-20.3 20.3v83.7c0 11.2 9.1 20.3 20.3 20.3h83.7c11.2 0 20.3-9.1 20.3-20.3v-83.7c0-3.2-.7-6.2-2-8.8l37.4-37.5z" fill="url(#a23ca9a45-1be7-40b5-9436-d6ce29d47b8b)"></path><path d="M189.8 434.5c-1.6 0-2.9 1.3-2.9 2.9v12.1c0 1.6 1.3 2.9 2.9 2.9H202c1.6 0 2.9-1.3 2.9-2.9v-12.1c0-1.6-1.3-2.9-2.9-2.9h-12.2z" fill="#25bcbd"></path></svg></svg> <!----></g></g> <g transform="translate(67,20.02138900756836)"><g data-gra="path-name" fill-rule="" class="tp-name iconsvg-namesvg"><g transform="scale(1)"><g><path d="M3.71 0L2.41-19.64 9.96-19.64 10.48-6.25 15.65-19.64 21.77-19.64 22.58-6.25 27.77-19.64 31.02-19.64 23.38 0 16.42 0 15.77-11.1 11.13 0 3.71 0ZM41.91-19.95L41.91-19.95Q44.57-19.95 46.22-19.27 47.88-18.59 48.84-17.16L48.84-17.16Q49.45-16.21 49.79-15 50.13-13.79 50.13-12.22L50.13-12.22Q50.13-10.86 49.89-9.49 49.64-8.13 49.19-6.88 48.74-5.63 48.11-4.53 47.47-3.43 46.7-2.6L46.7-2.6Q45.25-1.02 43.35-0.39 41.44 0.25 38.66 0.25L38.66 0.25Q35.97 0.25 34.33-0.31 32.69-0.87 31.73-2.1L31.73-2.1Q31.05-2.97 30.66-4.3 30.28-5.63 30.28-7.64L30.28-7.64Q30.28-11.07 31.5-13.78 32.72-16.48 34.98-18.06L34.98-18.06Q36.34-19.02 38.01-19.48 39.68-19.95 41.91-19.95ZM38.41-1.92L38.41-1.92Q39.12-1.92 39.76-2.55 40.39-3.19 40.93-4.25 41.47-5.32 41.92-6.68 42.37-8.04 42.68-9.49 42.99-10.95 43.16-12.39 43.33-13.82 43.33-15L43.33-15Q43.33-16.61 43.01-17.21 42.68-17.81 42.06-17.81L42.06-17.81Q41.35-17.81 40.7-17.2 40.05-16.58 39.48-15.54 38.91-14.51 38.46-13.16 38.01-11.81 37.69-10.39 37.36-8.97 37.19-7.58 37.02-6.19 37.02-5.01L37.02-5.01Q37.02-3.25 37.41-2.58 37.79-1.92 38.41-1.92ZM69.65-14.97L69.65-14.97Q69.65-13.14 68.63-11.6 67.61-10.05 65.26-9.25L65.26-9.25 68.85 0 61.95 0 59.23-8.57 58.89-8.57 57.06 0 50.38 0 54.56-19.64 62.69-19.64Q64.11-19.64 65.38-19.47 66.65-19.3 67.59-18.79 68.54-18.28 69.09-17.37 69.65-16.45 69.65-14.97ZM59.29-10.55L60.74-10.55Q61.55-10.55 62.12-11.09 62.69-11.63 63.05-12.4 63.4-13.18 63.56-14.06 63.71-14.94 63.71-15.59L63.71-15.59Q63.71-16.39 63.43-16.96 63.15-17.54 62.23-17.54L62.23-17.54 60.84-17.54 59.29-10.55ZM69.96 0L74.13-19.64 80.85-19.64 77.2-2.6 83.47-2.6 82.95 0 69.96 0ZM93.74 0L84.87 0 89.04-19.64 97.36-19.64Q99.28-19.64 100.72-19.25 102.15-18.87 103.1-17.97 104.04-17.07 104.52-15.62 105-14.16 105-12.06L105-12.06Q105-9.8 104.43-7.64 103.86-5.47 102.53-3.77 101.2-2.07 99.05-1.04 96.9 0 93.74 0L93.74 0ZM92.01-2.16L93.34-2.16Q94.36-2.16 95.15-3.02 95.94-3.87 96.51-5.18 97.08-6.49 97.47-8.09 97.86-9.68 98.09-11.16 98.32-12.65 98.43-13.82 98.54-15 98.54-15.49L98.54-15.49Q98.54-16.45 98.15-16.99 97.76-17.54 96.8-17.54L96.8-17.54 95.32-17.54 92.01-2.16ZM108.4 0L107.1-19.64 114.65-19.64 115.18-6.25 120.34-19.64 126.46-19.64 127.27-6.25 132.46-19.64 135.71-19.64 128.07 0 121.11 0 120.46-11.1 115.82 0 108.4 0ZM144.77-19.64L140.57 0 133.89 0 138.06-19.64 144.77-19.64ZM152.85 0L143.97 0 148.14-19.64 156.46-19.64Q158.38-19.64 159.82-19.25 161.26-18.87 162.2-17.97 163.14-17.07 163.62-15.62 164.1-14.16 164.1-12.06L164.1-12.06Q164.1-9.8 163.53-7.64 162.96-5.47 161.63-3.77 160.3-2.07 158.15-1.04 156 0 152.85 0L152.85 0ZM151.11-2.16L152.44-2.16Q153.46-2.16 154.25-3.02 155.04-3.87 155.61-5.18 156.19-6.49 156.57-8.09 156.96-9.68 157.19-11.16 157.42-12.65 157.53-13.82 157.64-15 157.64-15.49L157.64-15.49Q157.64-16.45 157.25-16.99 156.87-17.54 155.91-17.54L155.91-17.54 154.42-17.54 151.11-2.16ZM164.44 0L168.62-19.64 181.64-19.64 181.14-17.29 174.84-17.29 173.54-11.32 178.82-11.32 178.33-9 173.04-9 171.62-2.38 177.93-2.38 177.46 0 164.44 0Z" transform="translate(-2.4100000858306885, 19.950000762939453)"></path></g> <!----> <!----> <!----> <!----> <!----> <!----> <!----></g></g> <!----></g></g><defs v-gra="od"></defs></svg>